<svg width="88.8833" height="96.2167" viewBox="30 40 106 114" fill="none" xmlns="http://www.w3.org/2000/svg">
<path d="M30.1772 32.7704L34.6742 27.9923H144.43C144.43 41.2023 146.397 60.8767 143.024 81.5349C137.262 117.23 115.48 140.277 86.5304 153.628C31.8635 128.332 29.615 76.1947 30.0366 42.6076C30.0366 40.4996 30.1772 36.1432 30.1772 32.7704Z" fill="white"/>
<path d="M86.9356 139.048C38.4669 116.599 44.2233 66.518 44.3384 43.1471L130.108 43.2622C129.993 66.6331 135.404 116.714 86.9356 139.048ZM44.2233 39.3479L40.5392 43.2622C40.5392 46.0253 40.4241 49.5943 40.4241 51.3212C40.0787 78.8367 41.9207 121.549 86.7054 142.272C110.422 131.335 128.266 112.454 132.987 83.2115C135.75 66.2878 134.138 50.1699 134.138 39.3479L44.2233 39.3479Z" fill="#004990"/>
<path d="M68.6306 100.826C65.1768 104.51 61.8381 108.079 60.6868 109.345C60.4565 109.576 60.3414 109.921 60.5717 110.036C60.8019 110.267 61.1473 110.612 61.2624 110.612C61.4927 110.612 61.6078 110.727 61.9532 110.382C62.0683 110.267 65.8675 106.582 70.3575 102.323C70.3575 102.323 69.897 102.092 69.5516 101.747C69.0911 101.402 68.6306 100.826 68.6306 100.826Z" fill="#004990"/>
<path d="M70.9328 99.7899C71.8538 100.596 73.2354 101.402 73.2354 101.402L72.4295 102.208C72.0841 102.553 71.0479 101.977 70.0118 101.056C68.9756 100.135 68.2849 99.0991 68.6302 98.7538L69.5513 97.9479C69.4361 97.9479 70.0118 98.984 70.9328 99.7899Z" fill="#004990"/>
<path d="M110.077 109.23C110.767 108.54 110.767 107.849 110.767 107.849L111.573 108.194C111.803 108.425 111.573 109.346 110.882 110.036C110.192 110.727 109.155 110.957 108.925 110.727L108.465 109.921C108.58 110.036 109.386 110.036 110.077 109.23Z" fill="#004990"/>
<path d="M108.925 107.964C109.386 107.503 109.501 107.043 109.501 107.043L109.961 107.388C110.077 107.619 109.961 108.079 109.501 108.655C108.925 109.23 108.235 109.346 108.119 109.115L107.774 108.54C107.774 108.655 108.465 108.424 108.925 107.964Z" fill="#004990"/>
<path d="M111.343 68.8206L110.422 69.6265C109.155 70.087 106.392 67.8996 104.09 65.9424C102.593 64.676 99.5996 61.3373 100.405 59.9558L100.751 59.6104C100.521 59.4953 100.29 59.265 100.06 59.265C99.8299 59.1499 99.4845 59.0348 99.1391 59.0348C98.7937 59.0348 98.4483 59.265 98.4483 59.4953C98.3332 60.0709 98.6786 60.8768 99.2542 61.7979C99.7147 62.7189 101.557 65.4819 105.356 68.4753C107.083 69.8568 109.04 70.6627 110.422 71.2383C110.652 71.3534 111.573 71.4686 111.918 71.1232C112.264 70.7778 111.918 70.087 111.573 69.3963C111.573 69.2811 111.458 69.0509 111.343 68.8206Z" fill="#004990"/>
<path d="M72.43 54.8901C72.43 55.1203 72.43 55.4657 72.43 55.8111C72.43 56.7321 73.2359 64.2154 77.6108 69.6264C81.41 74.3466 92.6925 87.8166 94.5345 90.004C96.2614 91.9612 107.314 104.971 108.695 106.697C108.695 106.813 108.81 106.813 108.81 106.928C108.81 106.928 108.695 107.273 108.35 107.503C108.004 107.734 107.659 107.849 107.659 107.849L107.314 107.503C106.853 106.928 87.6269 87.7014 85.7848 85.9745C83.9428 84.1325 74.0418 74.5769 70.0123 72.0441C66.4434 69.7415 64.8316 68.4751 61.0324 68.2449C61.0324 68.2449 58.2693 68.1297 58.0391 68.0146C58.0391 68.0146 58.0391 67.8995 58.1542 67.7844C59.8811 67.0936 63.5652 64.9062 66.5585 62.1431C70.7031 58.2288 71.9695 55.4657 72.1998 55.0052C72.1998 54.7749 72.43 54.7749 72.43 54.8901ZM75.0779 71.1231C71.0485 67.2087 69.5518 66.2877 67.8249 65.4818C66.9039 65.0213 65.9829 64.791 65.6375 64.9062C64.8316 65.2516 63.6803 65.7121 62.9895 66.4028C62.4139 66.8633 62.529 67.0936 62.7593 67.2087C62.9895 67.3239 65.0618 67.7844 66.9039 68.8205C70.1275 70.5474 76.2292 74.8071 89.4689 88.3922C96.1463 95.2998 106.738 106.122 106.738 106.122L106.968 105.892C106.968 105.892 91.5412 88.6225 79.5679 75.8433C77.9561 74.0013 76.4595 72.5046 75.0779 71.1231Z" fill="#004990"/>
<path d="M63.2197 62.949C61.4928 64.4457 59.3054 65.8272 57.3482 66.518C56.0818 66.9785 54.3549 66.4028 55.6213 64.1003C55.9667 63.4095 56.5423 62.4885 57.2331 61.5675C59.5356 58.459 63.6802 54.775 67.7097 52.5875C68.9761 51.8968 70.0123 51.5514 70.5879 51.5514C71.624 51.6665 71.624 52.4724 71.5089 53.2783C71.0484 54.8901 68.1702 58.8044 63.2197 62.949ZM64.4861 60.7616C64.9466 60.4162 66.5584 58.8044 67.8248 57.1926C69.2064 55.4657 70.0123 54.0842 70.0123 54.0842C70.0123 54.0842 70.2425 53.6237 70.2425 53.2783C70.2425 53.048 69.8971 52.9329 69.8971 52.8178C69.782 52.7027 66.3282 54.1993 64.7164 55.696C64.4861 55.8111 64.2559 56.617 64.0256 57.0775C63.9105 57.538 65.0618 58.6893 64.2559 60.6465C64.1407 60.7616 64.371 60.7616 64.4861 60.7616Z" fill="#004990"/>
<path d="M85.4393 87.0109C84.6334 87.8168 72.1996 99.79 72.1996 99.79C72.4298 100.02 72.8904 100.366 72.8904 100.366C72.8904 100.366 84.288 89.3134 85.209 88.5075C85.4393 88.2773 85.8998 87.8168 86.13 87.7016L85.4393 87.0109Z" fill="#004990"/>
<path d="M109.04 72.2746C109.271 72.2746 109.386 72.2746 109.616 72.2746C109.846 72.2746 110.077 72.2746 110.077 72.1595C110.192 72.0443 110.307 71.9292 110.077 71.9292C109.501 71.9292 108.465 71.5838 107.198 71.0082C106.508 71.2384 105.241 71.5838 103.86 72.1595C102.018 72.9653 98.1032 75.2679 90.0443 82.7512L90.6199 83.442C93.383 80.9091 97.1822 77.5704 99.1394 76.304C102.708 74.0015 105.356 72.8502 107.083 72.5048C107.659 72.3897 108.35 72.2746 109.04 72.2746Z" fill="#004990"/>
<path d="M101.097 66.4029C98.91 64.1004 98.2192 62.4886 97.8738 61.2222V61.1071H97.7587V61.2222C97.5284 63.6399 97.7587 64.5609 96.7226 66.9786C95.9167 69.0509 94.42 71.5837 92.3477 74.0013C91.1964 75.3829 89.2393 77.5703 87.3972 79.7577L88.6636 81.2544C88.7788 81.1393 89.2393 80.6787 89.6998 80.2182C95.8015 73.656 101.213 69.5114 103.17 68.1298C102.364 67.6693 101.673 66.9786 101.097 66.4029Z" fill="#004990"/>
<path d="M82.9067 84.7083C80.2587 87.5864 77.7259 90.5798 76.92 91.3857C76.2293 92.0764 70.588 98.1782 70.588 98.1782C70.588 98.1782 70.7031 98.4084 70.9334 98.6387C71.1636 98.8689 71.3939 99.0992 71.3939 99.0992C71.3939 99.0992 83.3672 86.8957 84.1731 85.8595L82.9067 84.7083Z" fill="#004990"/>
<path d="M103.284 58.344C103.284 58.2288 103.284 58.1137 103.284 58.1137C102.708 57.9986 102.133 57.9986 101.903 58.2288C101.097 59.0347 102.824 61.9129 105.817 64.676C108.695 67.3239 111.688 68.9357 112.494 68.0147C112.84 67.6693 112.725 66.9785 112.264 66.1726C108.119 66.6331 103.284 60.9919 103.284 58.344Z" fill="#004990"/>
<path d="M116.409 59.38C115.948 59.8405 115.257 60.9918 114.912 61.3372C115.373 60.9918 115.603 59.9556 115.142 57.4228C114.797 55.5808 114.567 55.0052 114.336 54.4295C114.221 54.0841 113.991 54.1993 113.761 54.4295C113.531 54.6598 112.955 55.5808 112.955 55.6959C112.955 55.9262 112.955 55.6959 112.149 53.1631C111.573 51.5513 111.343 50.4 111.458 49.8244C111.458 49.479 111.458 49.2488 111.458 49.0185C111.458 48.7883 111.343 48.7883 110.883 49.0185C110.652 49.1336 108.35 50.7454 107.429 53.048C106.853 54.4295 106.853 55.4657 106.738 54.89C106.623 53.5085 106.623 53.6236 106.508 53.6236C105.817 53.8539 103.169 55.0052 103.169 58.5741C103.169 61.5674 108.695 67.7843 113.3 66.4028C113.3 66.4028 116.754 65.712 116.754 62.6036C116.754 59.2649 116.409 59.38 116.409 59.38ZM115.257 63.2943C115.142 63.6397 114.452 64.4456 113.531 64.791C112.494 65.2515 110.998 65.3666 110.307 65.1364C106.968 64.1002 104.896 60.6464 104.896 60.6464C102.248 56.3867 105.817 54.5446 106.047 54.5446C106.047 54.5446 105.702 55.9262 105.932 56.8472C106.162 57.6531 106.623 58.3438 106.853 58.8044C107.199 59.7254 106.738 60.4161 106.508 60.6464C106.393 60.7615 106.738 60.7615 106.738 60.6464C106.738 60.6464 106.853 60.5313 106.968 60.5313C107.429 60.1859 107.889 59.6103 107.774 59.0346C107.429 57.7682 106.508 56.8472 107.659 54.1993C108.35 52.5875 109.962 50.8606 110.077 50.8606C110.307 50.7454 110.537 50.5152 110.537 50.6303C110.537 50.8606 110.883 52.0118 110.998 52.8177C111.113 53.6236 112.034 55.2354 111.919 57.4228C111.689 59.6103 108.12 62.1431 107.544 62.2582C107.429 62.2582 107.083 62.4884 107.083 62.4884C106.968 62.6036 107.199 62.6036 107.199 62.6036C107.429 62.6036 108.925 62.2582 110.192 61.4523C111.228 60.7615 112.264 59.6103 112.61 58.9195C113.3 57.7682 113.531 56.0413 113.646 55.9262C113.761 55.6959 113.876 55.6959 113.876 55.811C113.876 55.9262 114.221 56.9623 114.221 57.4228C114.221 57.6531 114.452 58.459 114.452 59.38C114.452 61.1069 113.991 61.7977 112.955 62.6036C112.379 63.0641 111.804 63.1792 111.113 63.2943H110.883C110.767 63.2943 110.652 63.2943 110.883 63.4095C110.883 63.4095 110.998 63.4095 111.113 63.5246C111.689 63.7548 112.84 63.7548 113.646 63.2943C113.991 63.0641 114.452 62.7187 115.027 62.1431C115.257 61.9128 115.603 61.4523 115.603 61.6825C115.603 61.9128 115.603 62.6036 115.257 63.2943Z" fill="#004990"/>
</svg>
