<?xml version="1.0" encoding="utf-8"?>
<!-- Generator: Adobe Illustrator 21.1.0, SVG Export Plug-In . SVG Version: 6.00 Build 0)  -->
<svg version="1.1" xmlns="http://www.w3.org/2000/svg" xmlns:xlink="http://www.w3.org/1999/xlink" x="0px" y="0px"
	 viewBox="0 0 170 40" style="enable-background:new 0 0 170 40;" xml:space="preserve">
<style type="text/css">
	.st0{display:none;}
	.st1{display:inline;}
	.st2{fill:#C64A4A;}
	.st3{fill:#E28181;}
	.st4{fill:#FFFFFF;}
</style>
<g id="guide" class="st0">
	<g class="st1">
		<rect x="0" y="0" class="st2" width="20" height="20"/>
	</g>
	<g class="st1">
		<rect x="25" y="20" class="st2" width="25" height="20"/>
	</g>
	<g class="st1">
		<rect x="40" y="0" class="st2" width="20" height="20"/>
	</g>
	<g class="st1">
		<rect x="80" y="0" class="st2" width="20" height="20"/>
	</g>
	<g class="st1">
		<rect x="120" y="0" class="st2" width="20" height="20"/>
	</g>
	<g class="st1">
		<rect x="20" y="0" class="st3" width="20" height="20"/>
	</g>
	<g class="st1">
		<rect y="20" class="st3" width="25" height="20"/>
	</g>
	<g class="st1">
		<rect x="50" y="20" class="st3" width="25" height="20"/>
	</g>
	<g class="st1">
		<rect x="60" y="0" class="st3" width="20" height="20"/>
	</g>
	<g class="st1">
		<rect x="100" class="st3" width="20" height="20"/>
	</g>
</g>
<g id="Layer_1">
	<g id="icons_2_">
		<g id="FullScreen_2_">
			<g>
				<polygon class="st4" points="76.2,15.4 73.8,12.4 72,14.2 74.9,16.6 72,19.5 79.1,19.5 79.1,12.4 				"/>
				<polygon class="st4" points="67.3,0.7 60.2,0.7 60.2,7.7 63,5 65.6,7.7 67.3,6 64.6,3.4 				"/>
				<polygon class="st4" points="67.3,14.2 65.7,12.4 63,15.4 60.2,12.4 60.2,19.5 67.3,19.5 64.6,16.6 				"/>
				<polygon class="st4" points="79.1,0.7 72,0.7 74.9,3.4 72,6 73.8,7.7 76.2,5 79.1,7.7 				"/>
			</g>
		</g>
		<g id="Cog_2_">
			<path class="st4" d="M59.6,11.6V9.2l-2.9-1.2c-0.1-0.2-0.2-0.5-0.3-0.7l1.2-2.9l-1.7-1.7l-2.9,1.2c-0.2-0.1-0.5-0.2-0.7-0.3
				l-1.2-2.8h-2.4l-1.2,2.8c-0.2,0.1-0.5,0.2-0.7,0.3L44,2.8l-1.7,1.8l1.2,2.8c-0.1,0-0.2,0.6-0.2,0.6l-2.9,1.2v2.4l2.8,1.2
				c0.1,0.3,0.2,0.5,0.3,0.7l-1.2,2.8l1.6,1.6l2.8-1.2c0.2,0.1,0.5,0.2,0.7,0.3l1.2,3h2.4l1.2-2.9c0.2-0.1,0.5-0.2,0.7-0.3l2.9,1.2
				l1.6-1.6l-1.2-2.9c0.1-0.2,0.2-0.4,0.3-0.7l3-1.2L59.6,11.6z M50,14.1c-1.9,0-3.6-1.6-3.6-3.6s1.6-3.6,3.6-3.6
				c1.9,0,3.6,1.6,3.6,3.6S51.9,14.1,50,14.1z"/>
		</g>
		<g id="Camera_2_">
			<path id="Camera_Body_2_" class="st4" d="M136.9,5.1L135,1.3c-0.6-0.5-0.6-0.8-1.1-0.8h-3.4c-0.5,0-0.9,0.3-1.1,0.8l-1.8,3.8H123
				c-1.3,0-2.3,1-2.3,2.3v11.5h18.4V7.4c0-1.3-1.1-2.3-2.3-2.3H136.9z M124.3,9.7c-0.6,0-1.1-0.5-1.1-1.1s0.5-1.1,1.1-1.1
				s1.1,0.5,1.1,1.1S124.9,9.7,124.3,9.7z M132.3,16.6c-2.5,0-4.6-2.1-4.6-4.6s2.1-4.6,4.6-4.6s4.6,2.1,4.6,4.6
				S134.6,16.6,132.3,16.6z"/>
			<path id="Lense_2_" class="st4" d="M132.2,14.8c-1.5,0-2.8-1.3-2.8-2.8c0-1.5,1.3-2.8,2.8-2.8s2.8,1.3,2.8,2.8
				C135,13.5,133.6,14.8,132.2,14.8z"/>
		</g>
		<path id="AddToPlaylist_2_" class="st4" d="M64.9,26.5H50.3v2.3h14.6V26.5z M64.9,21.8H50.3v2.3h14.6V21.8z M69.8,31.1v-4.7h-2.4
			v4.7h-4.9v2.3h4.9v4.7h2.4v-4.7h4.9v-2.3H69.8z M50.3,33.4H60v-2.3h-9.7V33.4z"/>
		<path id="AddBookmark_2_" class="st4" d="M102.4,19.5V2.4c0,0,0.3-2,1.9-2c1.8,0,11.6,0,11.6,0s1.5,0.2,1.5,1.9
			c0,1.2,0,17.3,0,17.3l-7.5-3.2L102.4,19.5 M110.9,12.8V9.9l4.2-0.1V7.8l-4.2-0.1v-4h-2v3.9H105v2.1h3.9v3.9h2V12.8z"/>
		<g>
			<g>
				<rect x="22.1" y="-0.1" class="st4" width="5.1" height="19.6"/>
				<rect x="32.5" y="-0.1" class="st4" width="5.1" height="19.6"/>
			</g>
		</g>
		<g>
			<polygon class="st4" points="1.2,0.2 18.2,9.5 1.2,20.2 			"/>
		</g>
		<g>
			<g>
				<polygon class="st4" points="95.4,16.7 97.8,19.7 99.6,17.9 96.6,15.5 99.6,12.4 92.3,12.4 92.3,19.7 				"/>
				<polygon class="st4" points="80.2,7.6 87.5,7.6 87.5,0.3 84.7,3.1 82,0.3 80.3,2.1 83,4.8 				"/>
				<polygon class="st4" points="80.2,17.9 81.9,19.7 84.7,16.7 87.5,19.7 87.5,12.4 80.2,12.4 83,15.5 				"/>
				<polygon class="st4" points="92.3,7.6 99.6,7.6 96.6,4.8 99.6,2.1 97.8,0.3 95.4,3.1 92.3,0.3 				"/>
			</g>
		</g>
		<g id="Volume_2_">
			<path class="st4" d="M7,35c-2.7,0-5-2.2-5-5c0-2.7,2.2-5,5-5V35z"/>
			<polygon class="st4" points="9.5,25 14.5,22.5 14.5,37.5 9.5,35 			"/>
			<path class="st4" d="M17,35v-2.5c0.2,0,0.4,0,0.6-0.1c1.2-0.6,1.9-1.2,1.9-2.5s-0.7-2.1-1.9-2.4c-0.2,0-0.4-0.1-0.6-0.1v-2.5
				c0.4,0,0.8,0.1,1.2,0.1c2.5,0.6,3.7,2.6,3.7,4.9c0,2.3-1.6,4.3-3.7,4.9H17V35z"/>
		</g>
		<g id="Pause_2_">
			<path class="st4" d="M31.5,34.9c-2.8,0-5-2.3-5-5s2.3-5,5-5V34.9z"/>
			<polygon class="st4" points="34,24.9 39,22.4 39,37.4 34,34.9 			"/>
			<path class="st4" d="M48.3,34.4l-6.1-5.5c-0.2-0.2-0.3-0.5-0.3-0.8V26c0-0.5,0.4-0.8,0.7-0.5l6.1,5.5c0.2,0.2,0.3,0.5,0.3,0.8
				v2.2C49,34.4,48.6,34.7,48.3,34.4z"/>
			<path class="st4" d="M49,28c0,0.3-0.1,0.5-0.3,0.7l-6.1,5.7c-0.3,0.3-0.7,0-0.7-0.5v-2.1c0-0.3,0.1-0.5,0.3-0.7l6.1-5.7
				c0.3-0.3,0.7,0,0.7,0.5V28z"/>
		</g>
	</g>
</g>
</svg>
