<?xml version="1.0" encoding="utf-8"?>
<!-- Generator: Adobe Illustrator 20.0.0, SVG Export Plug-In . SVG Version: 6.00 Build 0)  -->
<svg version="1.1" id="Layer_1" xmlns="http://www.w3.org/2000/svg" xmlns:xlink="http://www.w3.org/1999/xlink" x="0px" y="0px"
	 viewBox="0 0 170 40" style="enable-background:new 0 0 170 40;" xml:space="preserve">
<style type="text/css">
	.st0{fill:#FFFFFF;}
</style>
<title>mejs4_icons</title>
<g id="Layer_1-2">
	<g id="icons">
		<g id="FullScreen">
			<polygon class="st0" points="76.2,15.4 73.8,12.4 72,14.2 74.9,16.6 72,19.5 79.1,19.5 79.1,12.4 			"/>
			<polygon class="st0" points="67.3,0.7 60.2,0.7 60.2,7.7 63,5 65.6,7.7 67.3,6 64.6,3.4 			"/>
			<polygon class="st0" points="67.3,14.2 65.7,12.4 63,15.4 60.2,12.4 60.2,19.5 67.3,19.5 64.6,16.6 			"/>
			<polygon class="st0" points="79.1,0.7 72,0.7 74.9,3.4 72,6 73.8,7.7 76.2,5 79.1,7.7 			"/>
		</g>
		<g id="Cog">
			<path class="st0" d="M59.6,11.6V9.2L56.7,8c-0.1-0.2-0.2-0.5-0.3-0.7l1.2-2.9l-1.7-1.7L53,3.9c-0.2-0.1-0.5-0.2-0.7-0.3l-1.2-2.8
				h-2.4l-1.2,2.8c-0.2,0.1-0.5,0.2-0.7,0.3L44,2.8l-1.7,1.8l1.2,2.8c-0.1,0-0.2,0.6-0.2,0.6l-2.9,1.2v2.4l2.8,1.2
				c0.1,0.2,0.2,0.5,0.3,0.7l-1.2,2.8l1.6,1.6l2.8-1.2c0.2,0.1,0.5,0.2,0.7,0.3l1.2,3H51l1.2-2.9c0.2-0.1,0.5-0.2,0.7-0.3l2.9,1.2
				l1.6-1.6l-1.2-2.9c0.1-0.2,0.2-0.5,0.3-0.7L59.6,11.6L59.6,11.6z M50,14.1c-2,0-3.6-1.6-3.6-3.6S48,6.9,50,6.9l0,0
				c2,0,3.6,1.6,3.6,3.6S52,14.1,50,14.1L50,14.1z"/>
		</g>
		<g id="Camera">
			<path id="Camera_Body" class="st0" d="M136.9,5.1L135,1.3c-0.6-0.5-0.6-0.8-1.1-0.8h-3.4c-0.5,0-0.9,0.3-1.1,0.8l-1.8,3.8H123
				c-1.2,0-2.3,1-2.3,2.2v0.1v11.5h18.4V7.4c0-1.3-1-2.3-2.3-2.3L136.9,5.1z M124.3,9.7c-0.6,0-1.1-0.5-1.1-1.1s0.5-1.1,1.1-1.1
				s1.1,0.5,1.1,1.1l0,0C125.4,9.2,124.9,9.7,124.3,9.7z M132.3,16.6c-2.5,0-4.6-2.1-4.6-4.6s2.1-4.6,4.6-4.6s4.6,2.1,4.6,4.6
				C136.8,14.5,134.8,16.5,132.3,16.6z"/>
			<path id="Lense" class="st0" d="M132.2,14.8c-1.5,0-2.8-1.3-2.8-2.8s1.3-2.8,2.8-2.8s2.8,1.3,2.8,2.8
				C134.9,13.5,133.7,14.7,132.2,14.8z"/>
		</g>
		<path id="AddToPlaylist" class="st0" d="M64.9,26.5H50.3v2.3h14.6V26.5z M64.9,21.8H50.3v2.3h14.6V21.8z M69.8,31.1v-4.7h-2.4v4.7
			h-4.9v2.3h4.9v4.7h2.4v-4.7h4.9v-2.3L69.8,31.1z M50.3,33.4H60v-2.3h-9.7V33.4z"/>
		<path id="AddBookmark" class="st0" d="M102.4,19.5V2.4c0,0,0.3-2,1.9-2h11.6c0.9,0.2,1.6,1,1.5,1.9v17.3l-7.5-3.2L102.4,19.5
			 M110.9,12.8V9.9l4.2-0.1v-2l-4.2-0.1v-4h-2v3.9H105v2.1h3.9v3.9h2V12.8z"/>
		<rect x="22.1" y="-0.1" class="st0" width="5.1" height="19.6"/>
		<rect x="32.5" y="-0.1" class="st0" width="5.1" height="19.6"/>
		<polygon class="st0" points="1.2,0.2 18.2,9.5 1.2,20.2 		"/>
		<polygon class="st0" points="95.4,16.7 97.8,19.7 99.6,17.9 96.6,15.5 99.6,12.4 92.3,12.4 92.3,19.7 		"/>
		<polygon class="st0" points="80.2,7.6 87.5,7.6 87.5,0.3 84.7,3.1 82,0.3 80.3,2.1 83,4.8 		"/>
		<polygon class="st0" points="80.2,17.9 81.9,19.7 84.7,16.7 87.5,19.7 87.5,12.4 80.2,12.4 83,15.5 		"/>
		<polygon class="st0" points="92.3,7.6 99.6,7.6 96.6,4.8 99.6,2.1 97.8,0.3 95.4,3.1 92.3,0.3 		"/>
		<g id="Volume">
			<path class="st0" d="M7,35c-2.8,0-5-2.2-5-5s2.2-5,5-5V35z"/>
			<polygon class="st0" points="9.5,25 14.5,22.5 14.5,37.5 9.5,35 			"/>
			<path class="st0" d="M17,35v-2.5c0.2,0,0.4,0,0.6-0.1c1.2-0.6,1.9-1.2,1.9-2.5c0.1-1.2-0.7-2.2-1.9-2.4c-0.2,0-0.4-0.1-0.6-0.1
				v-2.5c0.4,0,0.8,0.1,1.2,0.1c2.3,0.5,3.8,2.6,3.7,4.9c0,2.3-1.5,4.3-3.7,4.9H17V35z"/>
		</g>
		<g id="Pause">
			<path class="st0" d="M31.5,34.9c-2.8,0-5-2.2-5-5c0-2.7,2.3-5,5-5V34.9z"/>
			<polygon class="st0" points="34,24.9 39,22.4 39,37.4 34,34.9 			"/>
			<path class="st0" d="M48.3,34.4l-6.1-5.5c-0.2-0.2-0.3-0.5-0.3-0.8V26c0-0.5,0.4-0.8,0.7-0.5l6.1,5.5c0.2,0.2,0.3,0.5,0.3,0.8V34
				C49,34.4,48.6,34.7,48.3,34.4z"/>
			<path class="st0" d="M49,28c0,0.3-0.1,0.5-0.3,0.7l-6.1,5.7c-0.3,0.3-0.7,0-0.7-0.5v-2.1c0-0.3,0.1-0.5,0.3-0.7l6.1-5.7
				c0.3-0.3,0.7,0,0.7,0.5V28z"/>
		</g>
	</g>
</g>
<path id="path3396" class="st0" d="M88.8,28.7v0.7c0,0.1,0,0.2-0.1,0.2c-0.1,0.1-0.1,0.1-0.2,0.1h-6.1c-0.1,0-0.2,0-0.2-0.1
	c-0.1-0.1-0.1-0.1-0.1-0.2v-0.7c0-0.1,0-0.2,0.1-0.2c0.1-0.1,0.1-0.1,0.2-0.1h6.1c0.1,0,0.2,0,0.2,0.1
	C88.7,28.5,88.8,28.6,88.8,28.7z M90.1,29c0-1.3-0.5-2.5-1.4-3.4c-1.8-1.8-4.8-1.9-6.6-0.1c0,0,0,0-0.1,0.1c-1.8,1.9-1.8,4.8,0,6.7
	c1.8,1.8,4.8,1.9,6.6,0.1c0,0,0,0,0.1-0.1C89.6,31.5,90.1,30.3,90.1,29L90.1,29z M95.5,37.8c0,0.4-0.1,0.7-0.4,1s-0.6,0.4-1,0.4
	s-0.7-0.1-0.9-0.4l-3.6-3.7c-2.1,1.4-4.7,1.7-7.1,0.7c-3.8-1.6-5.6-6-4-9.8c0.8-1.8,2.2-3.2,4-4s3.9-0.8,5.8,0
	c2.7,1.2,4.5,3.9,4.5,6.9c0,1.5-0.4,3-1.3,4.2l3.6,3.6C95.4,37.1,95.5,37.5,95.5,37.8L95.5,37.8z"/>
<path id="path3406" class="st0" d="M109.7,28.7v0.7c0,0.2-0.2,0.3-0.3,0.3H107v2.4c0,0.2-0.2,0.3-0.3,0.3H106
	c-0.2,0-0.3-0.2-0.3-0.3v-2.4h-2.4c-0.2,0-0.3-0.2-0.3-0.3v-0.7c0-0.2,0.2-0.3,0.3-0.3h2.4V26c0-0.2,0.2-0.3,0.3-0.3h0.7
	c0.2,0,0.3,0.2,0.3,0.3v2.4h2.4C109.6,28.4,109.7,28.5,109.7,28.7L109.7,28.7z M111,29c0-2.6-2.1-4.8-4.7-4.8s-4.8,2.1-4.8,4.7
	s2.1,4.8,4.7,4.8c1.3,0,2.5-0.5,3.4-1.4C110.5,31.5,111,30.3,111,29z M116.4,37.8c0,0.8-0.6,1.4-1.4,1.4l0,0c-0.4,0-0.7-0.1-1-0.4
	l-3.6-3.6c-1.2,0.9-2.7,1.3-4.2,1.3c-1,0-2-0.2-2.9-0.6c-1.8-0.7-3.3-2.2-4-4c-0.8-1.9-0.8-3.9,0-5.8c0.7-1.8,2.2-3.3,4-4
	c1.9-0.8,3.9-0.8,5.8,0c1.8,0.7,3.3,2.2,4,4c0.4,0.9,0.6,1.9,0.6,2.9c0,1.5-0.4,3-1.3,4.2l3.6,3.6C116.3,37.1,116.4,37.5,116.4,37.8
	L116.4,37.8z"/>
<g id="Icons">
	<g id="external">
		<polygon id="box" class="st0" points="119.6,21.5 126.2,21.5 126.2,23.7 121.8,23.7 121.8,37 135.1,37 135.1,32.6 137.3,32.6 
			137.3,39.2 119.6,39.2 		"/>
		<polygon id="arrow_13_" class="st0" points="128.9,21.5 137.3,21.5 137.3,29.9 134.1,26.7 129.4,31.5 127.3,29.4 132,24.7 		"/>
	</g>
</g>
<path class="st0" d="M148,31.5h2.2c-0.1,1.1-0.5,1.9-1.1,2.5s-1.3,1-2.3,1c-1.1,0-2-0.4-2.6-1.2s-1-1.9-1-3.2s0.4-2.4,1-3.2
	c0.6-0.8,1.4-1.2,2.4-1.2c1.1,0,1.8,0.4,2.4,1c0.6,0.6,1,1.4,1,2.5h-2.2c0-0.5-0.1-0.8-0.4-1.1s-0.5-0.4-0.8-0.4
	c-0.4,0-0.7,0.2-1,0.6s-0.4,1.1-0.4,1.8c0,0.4,0,0.6,0,0.8s0.1,0.5,0.2,0.7c0.1,0.2,0.2,0.4,0.4,0.5s0.4,0.2,0.7,0.2
	C147.5,32.9,148,32.5,148,31.5z M155.4,31.5h2.2c-0.1,1.1-0.5,1.9-1,2.5c-0.6,0.6-1.3,1-2.2,1c-1.1,0-2-0.4-2.6-1.2s-1-1.9-1-3.2
	s0.4-2.4,1-3.2c0.6-0.8,1.4-1.2,2.4-1.2c1.1,0,1.8,0.4,2.4,1c0.6,0.6,1,1.4,1,2.5h-2.2c0-0.5-0.1-0.8-0.4-1.1
	c-0.2-0.2-0.5-0.4-0.8-0.4c-0.4,0-0.7,0.2-1,0.6s-0.4,1.1-0.4,1.8c0,0.4,0,0.6,0,0.8s0.1,0.5,0.2,0.7c0.1,0.2,0.2,0.4,0.4,0.5
	s0.4,0.2,0.7,0.2c0.4,0,0.6-0.1,0.8-0.4C155.3,32.3,155.4,32,155.4,31.5z M159.2,30.3c0-1.4,0-2.5-0.1-3.2s-0.4-1.2-0.6-1.7
	l-0.1-0.1c0,0-0.1-0.1-0.2-0.1c-0.1-0.1-0.1-0.1-0.1-0.1c-0.6-0.5-3-0.6-7.2-0.6c-4.3,0-6.7,0.2-7.3,0.6c0,0-0.1,0.1-0.2,0.1
	c-0.1,0-0.1,0.1-0.2,0.1l-0.1,0.1c-0.4,0.4-0.5,1-0.6,1.7s-0.1,1.8-0.1,3.2c0,1.4,0,2.5,0.1,3.2s0.4,1.2,0.6,1.7l0.1,0.1
	c0.1,0,0.1,0.1,0.2,0.1c0.1,0,0.1,0.1,0.2,0.1c0.4,0.2,1.1,0.4,2.5,0.5c1.3,0.1,3,0.1,4.9,0.1c4.2,0,6.6-0.2,7.2-0.7l0.1-0.1
	c0.1,0,0.1-0.1,0.2-0.1s0.1-0.1,0.1-0.1c0.4-0.4,0.5-1,0.6-1.7C159.3,32.7,159.2,31.7,159.2,30.3z M161.2,22.4v16h-21.3v-16
	C139.9,22.4,161.2,22.4,161.2,22.4z"/>
<g>
	<path class="st0" d="M144.5,5v5h5.5V5h3.6V19H150v-5h-5.5v5h-3.6V5H144.5z"/>
	<path class="st0" d="M161.1,5c4.3,0,6.4,2.3,6.4,7s-2.1,7-6.4,7h-6.4V5H161.1z M158.3,9v6h2.8c1.9,0,2.8-1,2.8-3s-0.9-3-2.8-3
		H158.3z"/>
</g>
</svg>
