<svg id="Layer_1" data-name="Layer 1" xmlns="http://www.w3.org/2000/svg" viewBox="0 0 170 40"><defs><style>.cls-1{fill:#fff;}</style></defs><title>mejs4_icons</title><g id="Layer_1-2" data-name="Layer 1"><g id="icons"><g id="FullScreen"><polygon class="cls-1" points="76.2 15.4 73.8 12.4 72 14.2 74.9 16.6 72 19.5 79.1 19.5 79.1 12.4 76.2 15.4"/><polygon class="cls-1" points="67.3 0.7 60.2 0.7 60.2 7.7 63 5 65.6 7.7 67.3 6 64.6 3.4 67.3 0.7"/><polygon class="cls-1" points="67.3 14.2 65.7 12.4 63 15.4 60.2 12.4 60.2 19.5 67.3 19.5 64.6 16.6 67.3 14.2"/><polygon class="cls-1" points="79.1 0.7 72 0.7 74.9 3.4 72 6 73.8 7.7 76.2 5 79.1 7.7 79.1 0.7"/></g><g id="Cog"><path class="cls-1" d="M59.6,11.6V9.2L56.7,8c-.1-.2-.2-.5-.3-.7l1.2-2.9L55.9,2.7,53,3.9c-.2-.1-.5-.2-.7-.3L51.1.8H48.7L47.5,3.6c-.2.1-.5.2-.7.3L44,2.8,42.3,4.6l1.2,2.8c-.1,0-.2.6-.2.6L40.4,9.2v2.4l2.8,1.2a4.88,4.88,0,0,0,.3.7l-1.2,2.8,1.6,1.6,2.8-1.2c.2.1.5.2.7.3l1.2,3H51l1.2-2.9c.2-.1.5-.2.7-.3L55.8,18l1.6-1.6-1.2-2.9a4.88,4.88,0,0,0,.3-.7l3-1.2ZM50,14.1a3.65,3.65,0,0,1-3.6-3.6A3.59,3.59,0,0,1,50,6.9a3.6,3.6,0,0,1,0,7.2Z"/></g><g id="Camera"><path id="Camera_Body" data-name="Camera Body" class="cls-1" d="M136.9,5.1,135,1.3c-.6-.5-.6-.8-1.1-.8h-3.4a1.17,1.17,0,0,0-1.1.8l-1.8,3.8H123a2.26,2.26,0,0,0-2.3,2.3V18.9h18.4V7.4a2.33,2.33,0,0,0-2.3-2.3ZM124.3,9.7a1.1,1.1,0,1,1,1.1-1.1A1.11,1.11,0,0,1,124.3,9.7Zm8,6.9a4.6,4.6,0,1,1,4.6-4.6A4.79,4.79,0,0,1,132.3,16.6Z"/><path id="Lense" class="cls-1" d="M132.2,14.8a2.86,2.86,0,0,1-2.8-2.8,2.8,2.8,0,0,1,5.6,0A2.93,2.93,0,0,1,132.2,14.8Z"/></g><path id="AddToPlaylist" class="cls-1" d="M64.9,26.5H50.3v2.3H64.9Zm0-4.7H50.3v2.3H64.9Zm4.9,9.3V26.4H67.4v4.7H62.5v2.3h4.9v4.7h2.4V33.4h4.9V31.1ZM50.3,33.4H60V31.1H50.3Z"/><path id="AddBookmark" class="cls-1" d="M102.4,19.5V2.4s.3-2,1.9-2h11.6a1.81,1.81,0,0,1,1.5,1.9V19.6l-7.5-3.2-7.5,3.1m8.5-6.7V9.9l4.2-.1v-2l-4.2-.1v-4h-2V7.6H105V9.7h3.9v3.9h2Z"/><rect class="cls-1" x="22.1" y="-0.1" width="5.1" height="19.6"/><rect class="cls-1" x="32.5" y="-0.1" width="5.1" height="19.6"/><polygon class="cls-1" points="1.2 0.2 18.2 9.5 1.2 20.2 1.2 0.2"/><polygon class="cls-1" points="95.4 16.7 97.8 19.7 99.6 17.9 96.6 15.5 99.6 12.4 92.3 12.4 92.3 19.7 95.4 16.7"/><polygon class="cls-1" points="80.2 7.6 87.5 7.6 87.5 0.3 84.7 3.1 82 0.3 80.3 2.1 83 4.8 80.2 7.6"/><polygon class="cls-1" points="80.2 17.9 81.9 19.7 84.7 16.7 87.5 19.7 87.5 12.4 80.2 12.4 83 15.5 80.2 17.9"/><polygon class="cls-1" points="92.3 7.6 99.6 7.6 96.6 4.8 99.6 2.1 97.8 0.3 95.4 3.1 92.3 0.3 92.3 7.6"/><g id="Volume"><path class="cls-1" d="M7,35A5,5,0,0,1,7,25Z"/><polygon class="cls-1" points="9.5 25 14.5 22.5 14.5 37.5 9.5 35 9.5 25"/><path class="cls-1" d="M17,35V32.5a1.27,1.27,0,0,0,.6-.1c1.2-.6,1.9-1.2,1.9-2.5a2.29,2.29,0,0,0-1.9-2.4c-.2,0-.4-.1-.6-.1V24.9c.4,0,.8.1,1.2.1a4.73,4.73,0,0,1,3.7,4.9,5.16,5.16,0,0,1-3.7,4.9H17Z"/></g><g id="Pause"><path class="cls-1" d="M31.5,34.9a5,5,0,0,1-5-5,5.08,5.08,0,0,1,5-5Z"/><polygon class="cls-1" points="34 24.9 39 22.4 39 37.4 34 34.9 34 24.9"/><path class="cls-1" d="M48.3,34.4l-6.1-5.5a1.14,1.14,0,0,1-.3-.8V26c0-.5.4-.8.7-.5L48.7,31a1.14,1.14,0,0,1,.3.8V34C49,34.4,48.6,34.7,48.3,34.4Z"/><path class="cls-1" d="M49,28a.91.91,0,0,1-.3.7l-6.1,5.7c-.3.3-.7,0-.7-.5V31.8a.91.91,0,0,1,.3-.7l6.1-5.7c.3-.3.7,0,.7.5Z"/></g></g></g><path id="path3396" class="cls-1" d="M88.77,28.68v.68a.33.33,0,0,1-.1.24.32.32,0,0,1-.24.1H82.38a.32.32,0,0,1-.24-.1.33.33,0,0,1-.1-.24v-.68a.33.33,0,0,1,.1-.24.32.32,0,0,1,.24-.1h6.06a.32.32,0,0,1,.24.1A.33.33,0,0,1,88.77,28.68Zm1.35.34a4.59,4.59,0,0,0-1.38-3.35,4.67,4.67,0,0,0-6.66,0,4.75,4.75,0,0,0,0,6.7,4.67,4.67,0,0,0,6.66,0A4.59,4.59,0,0,0,90.12,29Zm5.38,8.81a1.31,1.31,0,0,1-.39,1,1.29,1.29,0,0,1-1,.4,1.25,1.25,0,0,1-.95-.4L89.6,35.16a7.35,7.35,0,0,1-7.07.73,7.45,7.45,0,0,1,0-13.74,7.33,7.33,0,0,1,5.75,0A7.47,7.47,0,0,1,92.81,29a7.29,7.29,0,0,1-1.3,4.23l3.61,3.63a1.3,1.3,0,0,1,.39,1Z"/><path id="path3406" class="cls-1" d="M109.68,28.68v.68a.34.34,0,0,1-.34.34H107v2.37a.34.34,0,0,1-.34.34h-.68a.34.34,0,0,1-.34-.34V29.7h-2.37a.34.34,0,0,1-.34-.34v-.68a.34.34,0,0,1,.34-.34h2.37V26a.34.34,0,0,1,.34-.34h.68A.34.34,0,0,1,107,26v2.37h2.37a.34.34,0,0,1,.34.34ZM111,29a4.75,4.75,0,1,0-1.39,3.35A4.57,4.57,0,0,0,111,29Zm5.42,8.81a1.36,1.36,0,0,1-1.36,1.36,1.26,1.26,0,0,1-1-.4l-3.63-3.62a7.25,7.25,0,0,1-4.22,1.31,7.32,7.32,0,0,1-2.9-.59,7.3,7.3,0,0,1-4-4,7.43,7.43,0,0,1,0-5.79,7.3,7.3,0,0,1,4-4,7.43,7.43,0,0,1,5.79,0,7.3,7.3,0,0,1,4,4,7.32,7.32,0,0,1,.59,2.9,7.25,7.25,0,0,1-1.31,4.22l3.63,3.63a1.3,1.3,0,0,1,.39,1Z"/></svg>